<svg width="240" height="192" viewBox="0 0 240 192" fill="none" xmlns="http://www.w3.org/2000/svg">
<path d="M87.5373 82H68.723C66.1129 82 64 84.1129 64 86.723V105.537C64 108.147 66.1129 110.26 68.723 110.26H87.5373C90.1474 110.26 92.2603 108.147 92.2603 105.537V86.723C92.2603 84.1129 90.1474 82 87.5373 82ZM87.1178 103.642C87.1178 104.465 86.4498 105.133 85.6264 105.133H70.634C69.8105 105.133 69.1425 104.465 69.1425 103.642V88.634C69.1425 87.8105 69.8105 87.1425 70.634 87.1425H85.6419C86.4653 87.1425 87.1334 87.8105 87.1334 88.634V103.642H87.1178Z" fill="white"/>
<path d="M75.1436 99.9599C74.6619 99.9599 74.2891 99.5715 74.2891 99.1055V93.124C74.2891 92.6424 74.6775 92.2695 75.1436 92.2695H81.1405C81.6066 92.2695 81.995 92.6579 81.995 93.124V99.1055C81.995 99.5871 81.6066 99.9599 81.1405 99.9599H75.1436Z" fill="white"/>
<path d="M99.7617 99.5559H102.838C102.993 101.312 104.174 102.663 106.567 102.663C108.695 102.663 110.016 101.607 110.016 100.022C110.016 98.5306 108.99 97.8625 107.141 97.4275L104.749 96.9148C102.139 96.34 100.197 94.6776 100.197 91.9432C100.197 88.9292 102.869 86.8784 106.349 86.8784C110.031 86.8784 112.393 88.8049 112.595 91.6636H109.612C109.254 90.3275 108.151 89.5351 106.349 89.5351C104.454 89.5351 103.133 90.5605 103.133 91.8811C103.133 93.2016 104.267 93.994 106.225 94.429L108.586 94.9417C111.181 95.501 112.952 97.0702 112.952 99.8201C112.952 103.316 110.326 105.398 106.567 105.398C102.356 105.398 100.01 103.114 99.7617 99.5559Z" fill="white"/>
<path d="M123.983 110.261V105.134L124.185 102.897H123.983C123.283 104.513 121.792 105.398 119.772 105.398C116.525 105.398 114.102 102.757 114.102 98.6867C114.102 94.6318 116.525 91.9751 119.772 91.9751C121.761 91.9751 123.175 92.9073 123.983 94.3677H124.185V92.2392H126.857V110.277H123.983V110.261ZM124.091 98.6867C124.091 96.0922 122.507 94.5696 120.565 94.5696C118.623 94.5696 117.038 96.0767 117.038 98.6867C117.038 101.281 118.623 102.804 120.565 102.804C122.507 102.804 124.091 101.281 124.091 98.6867Z" fill="white"/>
<path d="M129.004 100.022V92.2388H131.878V99.7738C131.878 101.809 132.857 102.803 134.504 102.803C136.523 102.803 137.828 101.359 137.828 99.1213V92.2388H140.703V105.149H138.03V102.477H137.828C137.191 104.186 135.809 105.398 133.665 105.398C130.589 105.398 129.004 103.425 129.004 100.022Z" fill="white"/>
<path d="M142.461 101.545C142.461 99.1213 144.154 97.7076 147.153 97.5367L150.711 97.3036V96.2938C150.711 95.0819 149.825 94.3517 148.271 94.3517C146.827 94.3517 145.972 95.0819 145.755 96.1229H142.88C143.176 93.4972 145.351 91.9902 148.271 91.9902C151.581 91.9902 153.6 93.404 153.6 96.1229V105.149H150.928V102.757H150.726C150.12 104.342 148.862 105.398 146.438 105.398C144.092 105.398 142.461 103.829 142.461 101.545ZM150.711 99.9448V99.2612L147.805 99.4631C146.236 99.5564 145.537 100.147 145.537 101.312C145.537 102.291 146.345 103.005 147.479 103.005C149.514 103.005 150.711 101.685 150.711 99.9448Z" fill="white"/>
<path d="M155.727 105.149V92.2388H158.399V94.709H158.601C158.974 93.0156 160.263 92.2388 162.19 92.2388H163.495V94.8333H161.848C159.983 94.8333 158.601 96.0451 158.601 98.3445V105.149H155.727Z" fill="white"/>
<path d="M176.65 99.215H166.847C167.002 101.592 168.665 102.928 170.498 102.928C172.067 102.928 173.046 102.291 173.605 101.235H176.448C175.671 103.86 173.372 105.398 170.467 105.398C166.661 105.398 163.988 102.555 163.988 98.6867C163.988 94.8338 166.738 91.9751 170.498 91.9751C174.289 91.9751 176.759 94.5696 176.759 97.8012C176.743 98.4382 176.697 98.7644 176.65 99.215ZM173.9 97.2263C173.807 95.4397 172.316 94.2278 170.498 94.2278C168.789 94.2278 167.344 95.3154 166.987 97.2263H173.9Z" fill="white"/>
</svg>
