<svg xmlns="http://www.w3.org/2000/svg" viewBox="0 0 96 19.8"><path fill="currentColor" d="M0 14.3c0 1.5.6 2.9 1.6 3.9 1.1 1 2.5 1.6 3.9 1.6h.9v-12H0v6.5ZM6.5 6.5V0H0v6.5h6.5zM7.7 7.8h6.5v6.5H7.7zM17.3.9h-.1c-.3-.2-.5-.3-.8-.4C15.7.1 15 0 14.2 0H7.7v6.5h12.1v-.9c0-1.5-.6-2.9-1.6-3.9-.3-.3-.5-.5-.9-.7ZM38.7 8.5V7.3H37v8.4h1.7v-4.4c0-.9.2-1.4.5-1.8.4-.3.9-.5 1.6-.5h.4V7.2c-.6 0-1.1.1-1.5.4-.4.2-.8.6-1 1ZM48.2 7.7c-.6-.3-1.3-.5-2.1-.5s-1.6.2-2.2.5c-.6.4-1.1.9-1.5 1.5-.3.6-.5 1.4-.5 2.3 0 .9.2 1.6.5 2.3.3.6.9 1.2 1.5 1.5.6.4 1.4.5 2.2.5s1.8-.2 2.5-.7c.7-.5 1.1-1.1 1.4-1.9h-1.9c-.4.8-1 1.2-2 1.2s-1.2-.2-1.6-.6c-.4-.4-.7-.9-.7-1.6h6.4v-.9c0-.8-.2-1.5-.5-2.1-.3-.6-.8-1.1-1.4-1.5Zm-4.5 3.1c0-.6.3-1.2.8-1.5.4-.4.9-.6 1.5-.6s1.2.2 1.7.6c.4.4.7.9.7 1.5h-4.6ZM34.1 4c-.3 0-.6.1-.8.3-.2.2-.3.5-.3.8 0 .3.1.6.3.8.2.2.5.3.8.3.3 0 .6-.1.8-.3.2-.2.3-.5.3-.8s-.1-.6-.3-.8c-.2-.2-.5-.3-.8-.3ZM30.5 6.7c0-.5.1-.8.3-1 .2-.2.6-.3 1.1-.3V4c-1.1 0-1.9.2-2.4.7-.5.4-.8 1.1-.8 2.1v.6h-1v1.4h1v7h1.7v-7H32V7.4h-1.6v-.6ZM33.2 7.3h1.7v8.4h-1.7zM94.9 6.2c.3 0 .6-.1.8-.3.2-.2.3-.5.3-.8s-.1-.6-.3-.8c-.2-.2-.5-.3-.8-.3s-.6.1-.8.3c-.2.2-.3.5-.3.8 0 .3.1.6.3.8.2.2.5.3.8.3ZM81.3 13.6c-.3 0-.6.1-.8.3-.2.2-.3.5-.3.8 0 .3.1.6.3.8.2.2.5.3.8.3.3 0 .6-.1.8-.3.2-.2.3-.5.3-.8s-.1-.6-.3-.8c-.2-.2-.5-.3-.8-.3ZM90.3 8.5c-.3-.4-.7-.7-1.2-1-.5-.3-1.1-.4-1.7-.4-1.4 0-2.8.8-3.4 2.1-.3.6-.5 1.4-.5 2.2 0 .8.2 1.6.5 2.3.3.6.8 1.2 1.4 1.6.6.4 1.3.6 2 .5.6 0 1.2-.1 1.7-.4s.9-.6 1.2-1v1.2H92V7.3h-1.7v1.2Zm-.4 4.5c-.2.4-.5.8-.9 1-.4.2-.8.3-1.2.3s-.9-.1-1.2-.3c-.4-.2-.7-.6-.9-1-.2-.4-.4-.9-.4-1.5s.1-1.1.4-1.5c.2-.4.6-.7.9-1 .4-.2.8-.3 1.2-.3.4 0 .9.1 1.2.3.4.2.7.6.9 1 .2.4.4.9.4 1.5s-.1 1.1-.4 1.5ZM94 7.3h1.7v8.4H94zM77.6 11.3c-.4-.2-.9-.3-1.5-.5-.5-.1-.8-.2-1-.3-.2 0-.4-.2-.6-.4-.2-.2-.2-.3-.2-.6s.1-.5.4-.7c.2-.2.6-.3 1-.3s.8.1 1.1.3c.3.2.4.5.5.9H79c0-.8-.4-1.5-.9-2-.6-.5-1.3-.7-2.3-.7s-1.2.1-1.7.3c-.5.2-.9.5-1.1.9-.3.4-.4.8-.4 1.2s.1 1 .4 1.3c.3.3.6.6 1 .7.5.2 1 .4 1.5.5.6.2 1.1.3 1.4.5.3.2.5.4.5.7s-.1.5-.4.7c-.3.2-.6.3-1.1.3s-.9-.1-1.2-.3c-.3-.2-.5-.5-.5-.9h-1.8c0 .5.2 1 .5 1.4.3.4.7.7 1.2 1 .5.2 1.1.3 1.8.3s1.2-.1 1.7-.3c.5-.2.9-.5 1.1-.9s.4-.8.4-1.3-.2-1-.4-1.3c-.3-.3-.6-.6-1-.7ZM94.9 6.2zM60.9 4c-.3 0-.6.1-.8.3-.2.2-.3.5-.3.8 0 .3.1.6.3.8.2.2.5.3.8.3.3 0 .6-.1.8-.3.2-.2.3-.5.3-.8s-.1-.6-.3-.8c-.2-.2-.5-.3-.8-.3ZM60 7.3h1.7v8.4H60zM69.4 7.7c-.6-.3-1.3-.5-2.1-.5s-1.6.2-2.2.5c-.6.4-1.1.9-1.5 1.5-.3.6-.5 1.4-.5 2.3s.2 1.6.5 2.3c.3.6.9 1.2 1.5 1.5.6.4 1.4.5 2.2.5s1.8-.2 2.5-.7c.7-.5 1.1-1.1 1.4-1.9h-1.9c-.4.8-1 1.2-2 1.2s-1.2-.2-1.6-.6c-.4-.4-.7-.9-.7-1.6h6.4v-.9c0-.8-.2-1.5-.5-2.1-.3-.6-.8-1.1-1.4-1.5ZM65 10.8c0-.6.3-1.2.8-1.5.4-.4.9-.6 1.5-.6s1.2.2 1.7.6c.4.4.7.9.7 1.5h-4.6ZM56.3 4.4H58v11.3h-1.7zM53.5 6.7c0-.5.1-.8.3-1 .2-.2.6-.3 1.1-.3V4c-1.1 0-1.9.2-2.4.7-.5.4-.8 1.1-.8 2.1v.6h-1v1.4h1v7h1.7v-7H55V7.4h-1.6v-.6Z"></path></svg>
